<svg xmlns="http://www.w3.org/2000/svg" viewBox="0 0 152.35 55.39"><defs><style>.cls-1{fill:#1a213d;}</style></defs><g id="Calque_2" data-name="Calque 2"><g id="background"><path class="cls-1" d="M3.61,55.28H2.88V49.2H5.3a1.74,1.74,0,0,1,.48,3.4l1.4,2.68H6.35L5,52.67H3.61ZM5.3,52a.82.82,0,0,0,.92-.87v-.46a.81.81,0,0,0-.92-.87H3.61V52Z"/><path class="cls-1" d="M10.2,55.28V49.2h3.7v.64h-3v1.9h2.8v.65h-2.8v2.25h3v.64Z"/><path class="cls-1" d="M20.82,55.28l-.61-1.79H17.75l-.61,1.79H16.4l2.13-6.08h.93l2.12,6.08ZM19,49.88H19l-1,3H20Z"/><path class="cls-1" d="M24.33,55.28V49.2h.73v5.44h2.59v.64Z"/><path class="cls-1" d="M34.23,55.28V49.2h3.71v.64H35v1.9h2.8v.65H35v2.25h3v.64Z"/><path class="cls-1" d="M40.6,54.32l.54-.45a1.93,1.93,0,0,0,1.64.87c.87,0,1.34-.45,1.34-1.15s-.33-.86-1.13-1.05l-.49-.11c-1.11-.25-1.72-.74-1.72-1.67s.82-1.67,2-1.67a2.27,2.27,0,0,1,2,1l-.54.4a1.72,1.72,0,0,0-1.5-.75c-.78,0-1.26.34-1.26,1s.38.84,1.14,1l.5.12c1.18.27,1.7.79,1.7,1.7,0,1.11-.78,1.83-2.09,1.83A2.5,2.5,0,0,1,40.6,54.32Z"/><path class="cls-1" d="M49.77,49.84v5.44H49V49.84H47.11V49.2h4.6v.64Z"/><path class="cls-1" d="M57.69,55.28l-.61-1.79H54.62L54,55.28h-.74L55.4,49.2h.93l2.12,6.08Zm-1.82-5.4h0l-1,3h2.09Z"/><path class="cls-1" d="M62.68,49.84v5.44H62V49.84H60V49.2h4.6v.64Z"/><path class="cls-1" d="M67.36,55.28V49.2h3.7v.64h-3v1.9h2.8v.65h-2.8v2.25h3v.64Z"/><path class="cls-1" d="M82.69,50.15h0l-.51,1-1.46,2.65-1.44-2.65-.52-1h0v5.12H78V49.2h1l1.74,3.27h0l1.75-3.27h1v6.08h-.72Z"/><path class="cls-1" d="M90.57,55.28,90,53.49H87.51l-.61,1.79h-.74l2.12-6.08h.93l2.13,6.08Zm-1.82-5.4h0l-1,3h2.1Z"/><path class="cls-1" d="M95.56,51.57l-.73-1.35h0v5.06h-.71V49.2h.84l2.22,3.71.73,1.35h0V49.2h.71v6.08h-.84Z"/><path class="cls-1" d="M105.79,55.28l-.61-1.79h-2.46l-.61,1.79h-.74l2.13-6.08h.93l2.12,6.08ZM104,49.88h0l-1,3H105Z"/><path class="cls-1" d="M113.11,54.39h0a1.6,1.6,0,0,1-1.69,1c-1.49,0-2.52-1.11-2.52-3.15s1-3.15,2.58-3.15a2.32,2.32,0,0,1,2.21,1.34l-.6.36a1.67,1.67,0,0,0-1.61-1,1.8,1.8,0,0,0-1.8,2v1a1.81,1.81,0,0,0,1.87,2c.85,0,1.55-.43,1.55-1.33v-.6h-1.34v-.65h2v3.13h-.67Z"/><path class="cls-1" d="M117,55.28V49.2h3.71v.64h-3v1.9h2.81v.65h-2.81v2.25h3v.64Z"/><path class="cls-1" d="M128.5,50.15h0l-.51,1-1.46,2.65-1.44-2.65-.52-1h0v5.12h-.71V49.2h1l1.75,3.27h0l1.75-3.27h1v6.08h-.72Z"/><path class="cls-1" d="M132.58,55.28V49.2h3.71v.64h-3v1.9h2.8v.65h-2.8v2.25h3v.64Z"/><path class="cls-1" d="M140.86,51.57l-.73-1.35h0v5.06h-.72V49.2h.85l2.22,3.71.73,1.35h0V49.2h.72v6.08h-.85Z"/><path class="cls-1" d="M149.33,49.84v5.44h-.73V49.84h-1.93V49.2h4.6v.64Z"/><path class="cls-1" d="M78.75,29.24a6.5,6.5,0,0,0-2.07-4.12l-13.2-13c-1.94,1.2-3.16,2.77-3,5.12a6.52,6.52,0,0,0,2.07,4.12l13.2,13C77.69,33.16,78.92,31.59,78.75,29.24Z"/><path class="cls-1" d="M94.17,11.43V1.79L83.11,12.24H87v16a6.81,6.81,0,0,0,7.22,6.89V12.23h6.2v-.8Z"/><path class="cls-1" d="M8.84,34.1C4,30.75.64,26.6.09,20.66-.61,13.24,2.87,7.93,8.84,3.78Z"/><path class="cls-1" d="M55.06,35.1v-.89c0-4.8,0-9.59,0-14.39a15.89,15.89,0,0,0-.26-2.67,6.67,6.67,0,0,0-6.88-5.65V35.1Z"/><path class="cls-1" d="M41.71,20.89V35.11C38.43,35,34.17,32.65,34,28.27,33.8,24.42,37.18,21.18,41.71,20.89Z"/><path class="cls-1" d="M100.41,23.81c.12,5.39,3,9.62,7.93,11.27V11.8C103.79,13.35,100.27,17.4,100.41,23.81Z"/><path class="cls-1" d="M116.07,11.79v12h7.85C124.05,18.31,121.49,13.65,116.07,11.79Z"/><polygon class="cls-1" points="34.97 11.52 34.97 19.85 43.67 11.52 34.97 11.52"/><polygon class="cls-1" points="16.85 2.71 27.14 2.71 27.14 13.32 16.85 2.71"/><polygon class="cls-1" points="27.12 24.35 27.12 35.13 16.61 35.13 27.12 24.35"/><polygon class="cls-1" points="60.83 26.82 60.83 34.98 68.99 34.98 60.83 26.82"/><polygon class="cls-1" points="70.12 11.61 78.57 11.61 78.57 19.84 70.12 11.61"/><polygon class="cls-1" points="123.93 27.02 123.93 35.12 115.83 35.12 123.93 27.02"/><rect class="cls-1" x="131" width="7.14" height="35.12"/><rect class="cls-1" x="145.21" width="7.14" height="35.12"/></g></g></svg>