<svg xmlns="http://www.w3.org/2000/svg" viewBox="0 0 144.7 52.61"><defs><style>.cls-1{fill:#fff;}</style></defs><g id="Calque_2" data-name="Calque 2"><g id="background"><path class="cls-1" d="M3.43,52.51H2.74V46.73H5A1.65,1.65,0,0,1,5.49,50l1.33,2.55H6L4.78,50H3.43ZM5,49.43a.78.78,0,0,0,.87-.83v-.43A.78.78,0,0,0,5,47.34H3.43v2.09Z"/><path class="cls-1" d="M9.68,52.51V46.73h3.53v.61H10.38v1.8H13v.62H10.38v2.13h2.83v.62Z"/><path class="cls-1" d="M19.77,52.51l-.58-1.71H16.86l-.58,1.71h-.7l2-5.78h.88l2,5.78ZM18,47.37h0l-1,2.82h2Z"/><path class="cls-1" d="M23.11,52.51V46.73h.69v5.16h2.46v.62Z"/><path class="cls-1" d="M32.51,52.51V46.73H36v.61H33.2v1.8h2.67v.62H33.2v2.13H36v.62Z"/><path class="cls-1" d="M38.56,51.6l.51-.43a1.87,1.87,0,0,0,1.56.82c.83,0,1.27-.43,1.27-1.09s-.3-.82-1.07-1l-.47-.11c-1-.24-1.63-.7-1.63-1.59s.78-1.58,1.91-1.58a2.16,2.16,0,0,1,1.91.94L42,48a1.61,1.61,0,0,0-1.42-.71c-.73,0-1.19.32-1.19.94s.36.8,1.08,1l.48.11c1.12.26,1.61.76,1.61,1.62,0,1.06-.75,1.74-2,1.74A2.39,2.39,0,0,1,38.56,51.6Z"/><path class="cls-1" d="M47.28,47.34v5.17h-.7V47.34H44.74v-.61h4.37v.61Z"/><path class="cls-1" d="M54.79,52.51l-.58-1.71H51.88l-.58,1.71h-.7l2-5.78h.88l2,5.78Zm-1.73-5.14h0l-1,2.82h2Z"/><path class="cls-1" d="M59.54,47.34v5.17h-.7V47.34H57v-.61h4.36v.61Z"/><path class="cls-1" d="M64,52.51V46.73H67.5v.61H64.67v1.8h2.66v.62H64.67v2.13H67.5v.62Z"/><path class="cls-1" d="M78.54,47.64h0l-.49,1-1.38,2.51-1.37-2.51-.49-1h0v4.86h-.68V46.73H75l1.66,3.11h0l1.66-3.11h.91v5.78h-.68Z"/><path class="cls-1" d="M86,52.51l-.57-1.71H83.11l-.57,1.71h-.71l2-5.78h.88l2,5.78ZM84.3,47.37h0l-1,2.82h2Z"/><path class="cls-1" d="M90.76,49l-.69-1.28h0v4.81h-.68V46.73h.81l2.1,3.52.7,1.29h0V46.73h.68v5.78h-.8Z"/><path class="cls-1" d="M100.48,52.51,99.9,50.8H97.56L97,52.51h-.71l2-5.78h.89l2,5.78Zm-1.73-5.14h0l-1,2.82h2Z"/><path class="cls-1" d="M107.43,51.66h0a1.51,1.51,0,0,1-1.6,1c-1.41,0-2.4-1-2.4-3s1-3,2.46-3a2.21,2.21,0,0,1,2.1,1.26l-.57.35a1.6,1.6,0,0,0-1.53-1,1.71,1.71,0,0,0-1.71,1.89v.94A1.73,1.73,0,0,0,105.92,52c.81,0,1.48-.42,1.48-1.27v-.57h-1.28v-.62h1.95v3h-.64Z"/><path class="cls-1" d="M111.09,52.51V46.73h3.52v.61h-2.83v1.8h2.67v.62h-2.67v2.13h2.83v.62Z"/><path class="cls-1" d="M122.05,47.64h0l-.49,1-1.38,2.51-1.37-2.51-.49-1h0v4.86h-.68V46.73h.91l1.66,3.11h0l1.66-3.11h.91v5.78h-.68Z"/><path class="cls-1" d="M125.92,52.51V46.73h3.52v.61h-2.82v1.8h2.66v.62h-2.66v2.13h2.82v.62Z"/><path class="cls-1" d="M133.79,49l-.69-1.28h0v4.81h-.68V46.73h.81l2.11,3.52.69,1.29h0V46.73h.68v5.78h-.8Z"/><path class="cls-1" d="M141.84,47.34v5.17h-.7V47.34h-1.83v-.61h4.36v.61Z"/><path class="cls-1" d="M74.79,27.77a6.17,6.17,0,0,0-2-3.91L60.29,11.48c-1.84,1.14-3,2.64-2.84,4.87a6.13,6.13,0,0,0,2,3.91L72,32.63C73.79,31.49,75,30,74.79,27.77Z"/><path class="cls-1" d="M89.44,10.86V1.7l-10.5,9.92h3.68V26.86a6.35,6.35,0,0,0,2.5,5.2,6.23,6.23,0,0,0,4.36,1.34V11.62h5.89v-.76Z"/><path class="cls-1" d="M8.4,32.39C3.84,29.21.61,25.27.08,19.62c-.66-7,2.65-12.09,8.32-16Z"/><path class="cls-1" d="M52.3,33.34v-.85c0-4.55,0-9.11,0-13.67A14.37,14.37,0,0,0,52,16.29a6.32,6.32,0,0,0-6.54-5.36V33.34Z"/><path class="cls-1" d="M39.62,19.84V33.35c-3.12-.07-7.16-2.34-7.35-6.5C32.1,23.2,35.32,20.12,39.62,19.84Z"/><path class="cls-1" d="M95.37,22.61c.12,5.13,2.85,9.14,7.53,10.71V11.2C98.58,12.68,95.24,16.52,95.37,22.61Z"/><path class="cls-1" d="M110.24,11.19V22.54h7.46C117.82,17.39,115.39,13,110.24,11.19Z"/><polygon class="cls-1" points="33.22 10.94 33.22 18.85 41.48 10.94 33.22 10.94"/><polygon class="cls-1" points="16.01 2.58 25.78 2.58 25.78 12.65 16.01 2.58"/><polygon class="cls-1" points="25.76 23.13 25.76 33.36 15.77 33.36 25.76 23.13"/><polygon class="cls-1" points="57.78 25.47 57.78 33.23 65.53 33.23 57.78 25.47"/><polygon class="cls-1" points="66.6 11.03 74.63 11.03 74.63 18.84 66.6 11.03"/><polygon class="cls-1" points="117.71 25.67 117.71 33.35 110.02 33.35 117.71 25.67"/><rect class="cls-1" x="124.42" width="6.78" height="33.36"/><rect class="cls-1" x="137.92" width="6.78" height="33.36"/></g></g></svg>